<?xml version="1.0" encoding="UTF-8" standalone="no"?>
<svg
   xmlns:dc="http://purl.org/dc/elements/1.1/"
   xmlns:cc="http://creativecommons.org/ns#"
   xmlns:rdf="http://www.w3.org/1999/02/22-rdf-syntax-ns#"
   xmlns:svg="http://www.w3.org/2000/svg"
   xmlns="http://www.w3.org/2000/svg"
   xmlns:xlink="http://www.w3.org/1999/xlink"
   id="svg8"
   version="1.1"
   viewBox="160 15 48.000001 48.000001"
   height="48mm"
   width="48mm">
  <defs
     id="defs2">
    <linearGradient
       id="linearGradient4571">
      <stop
         id="stop4567"
         offset="0"
         style="stop-color:#f9f9f9;stop-opacity:1;" />
      <stop
         id="stop4569"
         offset="1"
         style="stop-color:#f9f9f9;stop-opacity:0;" />
    </linearGradient>
    <linearGradient
       id="linearGradient6173">
      <stop
         id="stop6169"
         offset="0"
         style="stop-color:#ff0000;stop-opacity:1;" />
      <stop
         id="stop6171"
         offset="1"
         style="stop-color:#ff0000;stop-opacity:0;" />
    </linearGradient>
    <linearGradient
       id="linearGradient6165">
      <stop
         id="stop6161"
         offset="0"
         style="stop-color:#f9f9f9;stop-opacity:1;" />
      <stop
         id="stop6163"
         offset="1"
         style="stop-color:#f9f9f9;stop-opacity:0;" />
    </linearGradient>
    <linearGradient
       gradientUnits="userSpaceOnUse"
       y2="113.87054"
       x2="152.89137"
       y1="135.79315"
       x1="119.0625"
       id="linearGradient6167"
       xlink:href="#linearGradient6165" />
    <linearGradient
       gradientUnits="userSpaceOnUse"
       y2="125.51611"
       x2="136.76624"
       y1="143.5873"
       x1="105.57146"
       id="linearGradient6175"
       xlink:href="#linearGradient6173" />
    <linearGradient
       y2="113.87054"
       x2="152.89137"
       y1="135.79315"
       x1="119.0625"
       gradientUnits="userSpaceOnUse"
       id="linearGradient5061"
       xlink:href="#linearGradient6165" />
    <radialGradient
       gradientUnits="userSpaceOnUse"
       gradientTransform="matrix(0.2426361,0.38083877,-0.27883354,0.17764762,130.56484,86.589179)"
       r="36.04076"
       fy="85.125061"
       fx="182.0723"
       cy="85.125061"
       cx="182.0723"
       id="radialGradient5128"
       xlink:href="#linearGradient4571" />
  </defs>
  <metadata
     id="metadata5">
    <rdf:RDF>
      <cc:Work
         rdf:about="">
        <dc:format>image/svg+xml</dc:format>
        <dc:type
           rdf:resource="http://purl.org/dc/dcmitype/StillImage" />
        <dc:title></dc:title>
      </cc:Work>
    </rdf:RDF>
  </metadata>
  <g
     transform="translate(42.466303,-136.94365)"
     style="display:none"
     id="layer2">
    <circle
       r="42.094952"
       cy="143.5873"
       cx="105.57146"
       id="path20"
       style="fill:url(#linearGradient5061);fill-opacity:1;stroke:#800000;stroke-width:0.26458332" />
    <path
       transform="scale(0.26458333)"
       id="path862"
       d="m 383.46382,700.29847 c -28.98791,-2.99198 -55.66791,-13.45884 -79.59941,-31.22774 -8.13782,-6.04225 -23.59646,-21.16791 -29.60781,-28.97005 -35.78269,-46.44243 -43.46912,-106.60654 -20.49592,-160.42815 9.15027,-21.43727 25.15968,-42.75817 43.95706,-58.54085 12.88764,-10.82073 31.61346,-21.59443 47.63671,-27.40727 8.39153,-3.04423 22.23376,-6.46646 31.9627,-7.90217 9.92563,-1.46473 33.90295,-1.4632 43.52163,0.003 39.0728,5.95507 73.07479,24.50244 97.81898,53.35819 19.55891,22.80888 31.60211,48.50224 36.68159,78.25777 1.61139,9.43947 2.22772,30.12973 1.20847,40.56809 -7.09235,72.6341 -62.54208,130.5614 -135.40272,141.45266 -7.61398,1.13814 -29.95472,1.63424 -37.68128,0.83674 z"
       style="fill:none;stroke-width:0.61466724" />
  </g>
  <g
     transform="translate(42.466303,-136.94365)"
     id="g6227"
     style="display:none">
    <circle
       style="fill:url(#linearGradient6167);fill-opacity:1;stroke:#800000;stroke-width:0.26458332"
       id="circle6205"
       cx="105.57146"
       cy="143.5873"
       r="42.094952" />
    <path
       style="fill:none;stroke:#000000;stroke-width:0.26458332px;stroke-linecap:butt;stroke-linejoin:miter;stroke-opacity:1"
       d="m 137.14266,88.904335 -31.5712,54.682955 63.14243,-1e-5"
       id="path6207" />
    <path
       style="fill:#ffff00;stroke:#ff0000;stroke-width:0.26458332px;stroke-linecap:butt;stroke-linejoin:miter;stroke-opacity:1"
       d="M 136.20722,88.7707 73.06481,198.13662"
       id="path6209" />
    <path
       style="fill:none;stroke:#ff2a2a;stroke-width:0.26458332px;stroke-linecap:butt;stroke-linejoin:miter;stroke-opacity:1"
       d="m 42.429022,143.58731 126.284868,-3e-5"
       id="path6211" />
    <path
       style="fill:none;stroke:#ff0000;stroke-width:0.26458332px;stroke-linecap:butt;stroke-linejoin:miter;stroke-opacity:1"
       d="M 74.000227,88.904351 137.14269,198.27024"
       id="path6213" />
    <path
       id="path6215"
       d="M 74.000227,87.300734 137.14269,196.66662"
       style="fill:none;stroke:#ff0000;stroke-width:0.26458332px;stroke-linecap:butt;stroke-linejoin:miter;stroke-opacity:1" />
    <path
       id="path6217"
       d="M 73.338769,89.471315 136.48123,198.8372"
       style="fill:none;stroke:#ff0000;stroke-width:0.26458332px;stroke-linecap:butt;stroke-linejoin:miter;stroke-opacity:1" />
    <path
       id="path6219"
       d="M 138.0781,89.171605 74.935696,198.53752"
       style="fill:#ffff00;stroke:#ff0000;stroke-width:0.26458332px;stroke-linecap:butt;stroke-linejoin:miter;stroke-opacity:1" />
    <path
       style="fill:#ffff00;stroke:#ff0000;stroke-width:0.26458332px;stroke-linecap:butt;stroke-linejoin:miter;stroke-opacity:1"
       d="M 138.0781,89.171605 74.935696,198.53752"
       id="path6221" />
    <path
       id="path6223"
       d="m 42.295387,144.65639 126.284873,-3e-5"
       style="fill:none;stroke:#ff2a2a;stroke-width:0.26458332px;stroke-linecap:butt;stroke-linejoin:miter;stroke-opacity:1" />
    <path
       style="fill:none;stroke:#ff2a2a;stroke-width:0.26458332px;stroke-linecap:butt;stroke-linejoin:miter;stroke-opacity:1"
       d="m 42.696291,142.25096 126.284869,-3e-5"
       id="path6225" />
  </g>
  <g
     transform="translate(42.466303,-136.94365)"
     style="display:none"
     id="layer4">
    <rect
       y="142.08499"
       x="11.827972"
       height="3.0045958"
       width="187.48697"
       id="rect6202"
       style="display:inline;fill:#ffff00;fill-opacity:0.22457628;stroke:#000000;stroke-width:0.08733109;stroke-miterlimit:4;stroke-dasharray:none;stroke-opacity:1" />
    <rect
       transform="rotate(-60)"
       y="161.71892"
       x="-165.308"
       height="3.0045958"
       width="187.48697"
       id="rect6231"
       style="display:inline;fill:#ffff00;fill-opacity:0.22457628;stroke:#000000;stroke-width:0.08733109;stroke-miterlimit:4;stroke-dasharray:none;stroke-opacity:1" />
    <rect
       style="display:inline;fill:#ffff00;fill-opacity:0.22457628;stroke:#000000;stroke-width:0.08733109;stroke-miterlimit:4;stroke-dasharray:none;stroke-opacity:1"
       id="rect6233"
       width="187.48697"
       height="3.0045958"
       x="-270.87946"
       y="18.131622"
       transform="rotate(-120)" />
  </g>
  <g
     transform="translate(42.466303,-136.94365)"
     style="display:none"
     id="layer1">
    <path
       id="path6159"
       d="m 137.14266,88.904333 c -31.5712,54.682957 -31.5712,54.682967 31.57123,54.682947"
       style="fill:url(#linearGradient6175);fill-opacity:1;stroke:#000000;stroke-width:0.26458332px;stroke-linecap:butt;stroke-linejoin:miter;stroke-opacity:0" />
  </g>
  <g
     transform="translate(42.466303,-136.94365)"
     style="display:inline"
     id="layer3">
    <path
       id="path6235"
       d="m 129.99586,155.76095 6.51462,11.21278 c 0,0 4.63226,-2.91806 10.19595,-0.0531 l 6.45329,-11.1982"
       style="fill:#f9f9f9;fill-opacity:0;stroke:#ffffff;stroke-width:0.42316535;stroke-linecap:butt;stroke-linejoin:miter;stroke-miterlimit:4;stroke-dasharray:none;stroke-opacity:1" />
    <path
       style="fill:#f9f9f9;fill-opacity:0;stroke:#ffffff;stroke-width:0.42316535;stroke-linecap:butt;stroke-linejoin:miter;stroke-miterlimit:4;stroke-dasharray:none;stroke-opacity:1"
       d="m 117.78659,176.22565 12.96786,-0.0366 c 0,0 -0.21145,-5.47067 5.05121,-8.85694 l -6.47223,-11.18729"
       id="path6237" />
    <path
       id="path6239"
       d="m 129.29521,196.96366 6.51261,-11.21395 c 0,0 -4.82968,-2.57819 -5.09737,-8.83045 l -12.92446,-0.058"
       style="fill:#f9f9f9;fill-opacity:0;stroke:#ffffff;stroke-width:0.42316535;stroke-linecap:butt;stroke-linejoin:miter;stroke-miterlimit:4;stroke-dasharray:none;stroke-opacity:1" />
    <path
       style="fill:#f9f9f9;fill-opacity:0;stroke:#ffffff;stroke-width:0.42316535;stroke-linecap:butt;stroke-linejoin:miter;stroke-miterlimit:4;stroke-dasharray:none;stroke-opacity:1"
       d="m 153.27636,197.34414 -6.54013,-11.19792 c 0,0 -4.6256,2.92861 -10.19579,0.0764 l -6.42779,11.21288"
       id="path6241" />
    <path
       id="path6243"
       d="m 165.43722,176.97431 -12.96792,-7.7e-4 c 0,0 0.19576,5.47125 -5.07659,8.8424 l 6.44009,11.20581"
       style="fill:#f9f9f9;fill-opacity:0;stroke:#ffffff;stroke-width:0.42316535;stroke-linecap:butt;stroke-linejoin:miter;stroke-miterlimit:4;stroke-dasharray:none;stroke-opacity:1" />
    <path
       style="fill:url(#radialGradient5128);fill-opacity:1;stroke:#ffffff;stroke-width:0.42316535;stroke-linecap:butt;stroke-linejoin:miter;stroke-miterlimit:4;stroke-dasharray:none;stroke-opacity:1"
       d="m 153.92045,156.16237 -6.50762,11.21685 c 0,0 4.83084,2.57601 5.10136,8.82814 l 12.92448,0.0521"
       id="path6245" />
  </g>
</svg>
